<?xml version="1.0" encoding="UTF-8" standalone="no"?>
<svg width="206px" height="147px" viewBox="0 0 206 147" version="1.1" xmlns="http://www.w3.org/2000/svg" xmlns:xlink="http://www.w3.org/1999/xlink" xmlns:sketch="http://www.bohemiancoding.com/sketch/ns">
    <!-- Generator: Sketch 3.2.2 (9983) - http://www.bohemiancoding.com/sketch -->
    <title>Logo</title>
    <desc>Created with Sketch.</desc>
    <defs></defs>
    <g id="Home-Page" stroke="none" stroke-width="1" fill="none" fill-rule="evenodd" sketch:type="MSPage">
        <g id="Desktop" sketch:type="MSArtboardGroup" transform="translate(-67.000000, -74.000000)">
            <g id="Logo" sketch:type="MSLayerGroup" transform="translate(67.000000, 74.000000)">
                <path d="M204.653389,29.4445141 L192.798749,28.944507 L180.920768,28.8254577 L169.0367,29.1556901 C165.081094,29.4124225 161.114325,29.586338 157.155675,29.9134648 L151.223281,30.4807606 L148.259113,30.7716549 L145.301034,31.164 L139.388936,31.9497254 C137.414177,32.2157746 135.45667,32.5925915 133.49003,32.9052254 C129.55066,33.5066831 125.650867,34.3472746 121.739911,35.1392113 C120.237025,35.4207887 118.755448,35.8007113 117.269813,36.162 L95.872197,3.38307042 C93.2926305,-0.349901408 92.3265616,-0.368535211 89.6272512,3.30335915 L30.8076552,88.6523873 C30.6270246,88.8428662 30.460601,89.0685423 30.3175172,89.3594366 C30.0313498,89.782838 30.1105025,90.370838 30.5113399,90.6948592 C30.9294286,91.032338 31.5342365,90.958838 31.866069,90.532331 L31.9046305,90.4816056 L31.9726207,90.3936127 C34.5765419,87.5612746 37.492,84.8873239 40.3962956,82.3293169 C43.3391527,79.7661338 46.3784138,77.3375282 49.4613103,74.9772465 C52.5797241,72.6614789 55.7153892,70.3757324 58.9647094,68.2514789 C62.1876453,66.0878873 65.5242365,64.1002817 68.8740197,62.1426972 L73.9773399,59.3362394 C75.6943448,58.4273239 77.4397635,57.570169 79.1669163,56.6819577 C82.6536946,54.9697183 86.1749754,53.3154507 89.7510542,51.778162 C91.5228571,50.9686268 93.3311921,50.2470845 95.144601,49.5369296 C96.9569951,48.8226338 98.7551823,48.0710704 100.601064,47.4375211 L106.107251,45.462338 L111.682443,43.673493 C112.824069,43.2873592 113.982946,42.9509155 115.142837,42.6258592 L150.342453,90.3811901 C150.648916,90.7932042 151.223281,90.9008662 151.650502,90.6099718 C152.094975,90.3076901 152.214719,89.6969155 151.918404,89.2445282 L120.492749,41.1030634 C121.31066,40.8711761 122.125527,40.6465352 122.954601,40.4539859 C126.749872,39.5181549 130.539054,38.533669 134.384049,37.779 C136.300966,37.3887254 138.209764,36.9373732 140.137842,36.5936831 L145.926138,35.5729648 L148.82333,35.0636408 L151.736759,34.6516268 L157.560571,33.8006831 C161.450217,33.2644437 165.359143,32.8783099 169.26198,32.4093592 L181.018187,31.4362606 L192.81397,30.7778662 L204.633094,30.429 L204.65136,30.429 C204.89998,30.4186479 205.101921,30.2147113 205.115113,29.9559085 C205.125261,29.6857183 204.921291,29.4569366 204.653389,29.4445141 L204.653389,29.4445141 Z M110.091271,37.9611972 L104.30602,39.5761268 L98.5745517,41.3898169 C96.6535764,41.9685 94.7802956,42.6910775 92.8857044,43.3660352 C90.997202,44.0378873 89.1046404,44.722162 87.2496256,45.4985704 C83.4919015,46.9447606 79.8224631,48.6186972 76.1733202,50.3412887 C74.3761478,51.2595211 72.5637537,52.1498028 70.7777438,53.0949507 C69.0059409,54.0752958 67.2351527,55.0494296 65.4877044,56.0732535 C63.76867,57.1426268 62.0090443,58.1478169 60.3194384,59.2730915 C58.6450542,60.4190704 56.9250049,61.4905141 55.2932414,62.7068873 L52.82733,64.498838 C52.1494581,65.0071268 51.4878227,65.5433662 50.8211133,66.0702887 L92.645202,12.1026549 L111.440926,37.6009437 C110.991379,37.7210282 110.537773,37.8276549 110.091271,37.9611972 L110.091271,37.9611972 Z" id="Fill-1" fill="#A9CE6E" sketch:type="MSShapeGroup"></path>
                <path d="M10.7617241,114.163099 L9.70736946,117.417803 L7.33278818,117.417803 L12.9201576,101.097697 L15.4154975,101.097697 L21.0515764,117.417803 L18.5572512,117.417803 L17.5018818,114.163099 L10.7617241,114.163099 L10.7617241,114.163099 Z M11.4335074,112.059549 L16.8300985,112.059549 L14.168335,103.813056 L14.1196256,103.813056 L11.4335074,112.059549 L11.4335074,112.059549 Z" id="Fill-2" fill="#2A2B29" sketch:type="MSShapeGroup"></path>
                <path d="M30.0252611,105.280986 L30.0252611,107.45907 C29.7380788,107.410415 29.4975764,107.410415 29.2580887,107.410415 C27.3868374,107.410415 26.2117241,108.510845 25.8524926,110.590585 L25.8524926,117.417803 L23.6209951,117.417803 L23.6209951,105.379331 L25.5886502,105.379331 L25.6850542,107.60607 L25.731734,107.60607 C26.3791626,105.991141 27.6029852,105.232331 29.3057833,105.232331 C29.5696256,105.232331 29.7614187,105.232331 30.0252611,105.280986" id="Fill-3" fill="#2A2B29" sketch:type="MSShapeGroup"></path>
                <path d="M42.0209557,116.635183 C42.0209557,120.084507 40.2217537,121.918901 36.9359015,121.918901 C35.065665,121.918901 33.4105616,121.283282 32.2354483,120.060697 L33.3385123,118.470613 C34.3208177,119.448887 35.4969458,119.962352 36.8161576,119.962352 C38.782798,119.962352 39.7904729,118.885732 39.7904729,116.732493 L39.7904729,115.705563 L39.7417635,115.705563 C38.879202,116.757338 37.679734,117.319458 36.3118128,117.319458 C33.4582562,117.319458 31.9716059,115.607218 31.9716059,112.303859 L31.9716059,110.15062 C31.9716059,106.847261 33.4582562,105.135021 36.3118128,105.135021 C37.8238325,105.135021 39.1186897,105.820331 39.982266,107.067761 L40.0299606,107.067761 L40.1740591,105.379331 L42.0209557,105.379331 L42.0209557,116.635183 L42.0209557,116.635183 Z M39.7904729,109.46531 C39.1907389,107.99738 38.0633202,107.116415 36.6964138,107.116415 C35.0169557,107.116415 34.2010739,108.14438 34.2010739,110.22412 L34.2010739,112.230359 C34.2010739,114.310099 35.0169557,115.338063 36.6964138,115.338063 C38.0633202,115.338063 39.1907389,114.457099 39.7904729,112.989169 L39.7904729,109.46531 L39.7904729,109.46531 Z" id="Fill-4" fill="#2A2B29" sketch:type="MSShapeGroup"></path>
                <path d="M45.4306108,110.346275 C45.4306108,107.042915 47.2764926,105.135021 50.5390049,105.135021 C53.8015172,105.135021 55.647399,107.042915 55.647399,110.346275 L55.647399,112.450859 C55.647399,115.778028 53.8015172,117.662113 50.5390049,117.662113 C47.2764926,117.662113 45.4306108,115.778028 45.4306108,112.450859 L45.4306108,110.346275 L45.4306108,110.346275 Z M47.6610936,112.377359 C47.6610936,114.579254 48.6200591,115.680718 50.5390049,115.680718 C52.4579507,115.680718 53.4169163,114.579254 53.4169163,112.377359 L53.4169163,110.419775 C53.4169163,108.21788 52.4579507,107.116415 50.5390049,107.116415 C48.6200591,107.116415 47.6610936,108.21788 47.6610936,110.419775 L47.6610936,112.377359 L47.6610936,112.377359 Z" id="Fill-5" fill="#2A2B29" sketch:type="MSShapeGroup"></path>
                <path d="M68.8435764,110.028465 L68.8435764,117.417803 L66.6130936,117.417803 L66.6130936,110.10093 C66.6130936,108.119535 65.9169557,107.116415 64.3105616,107.116415 C62.990335,107.116415 61.9116256,107.94769 61.2885517,109.366965 L61.2885517,117.417803 L59.0570542,117.417803 L59.0570542,105.379331 L60.9049655,105.379331 L61.0480493,107.042915 L61.0957438,107.042915 C61.9836749,105.795486 63.2551921,105.135021 64.7418424,105.135021 C67.5243645,105.135021 68.8435764,106.798606 68.8435764,110.028465" id="Fill-6" fill="#2A2B29" sketch:type="MSShapeGroup"></path>
                <path d="M82.4476946,110.028465 L82.4476946,117.417803 L80.2172118,117.417803 L80.2172118,110.10093 C80.2172118,108.119535 79.5210739,107.116415 77.9146798,107.116415 C76.595468,107.116415 75.5157438,107.94769 74.89267,109.366965 L74.89267,117.417803 L72.6621872,117.417803 L72.6621872,105.379331 L74.5090837,105.379331 L74.6531823,107.042915 L74.7008768,107.042915 C75.5877931,105.795486 76.8593103,105.135021 78.3459606,105.135021 C81.1284828,105.135021 82.4476946,106.798606 82.4476946,110.028465" id="Fill-7" fill="#2A2B29" sketch:type="MSShapeGroup"></path>
                <path d="M95.6915665,110.24793 L95.6915665,112.206549 L87.8726995,112.206549 L87.8726995,112.427049 C87.8726995,114.627908 88.8793596,115.680718 90.8936946,115.680718 C92.2129064,115.680718 93.1728867,115.166218 94.0608177,113.967444 L95.5951626,115.239718 C94.3967094,116.904338 92.8613498,117.662113 90.7983054,117.662113 C87.5124532,117.662113 85.6422167,115.778028 85.6422167,112.450859 L85.6422167,110.346275 C85.6422167,107.042915 87.4880985,105.135021 90.7029163,105.135021 C93.8923645,105.135021 95.6915665,107.019106 95.6915665,110.24793 L95.6915665,110.24793 Z M93.6041675,110.346275 C93.6041675,108.16819 92.6695567,107.116415 90.7029163,107.116415 C88.8083251,107.116415 87.8726995,108.16819 87.8726995,110.37112 L87.8726995,110.44462 L93.6041675,110.44462 L93.6041675,110.346275 L93.6041675,110.346275 Z" id="Fill-8" fill="#2A2B29" sketch:type="MSShapeGroup"></path>
                <path d="M114.260995,108.29138 L114.260995,110.395965 L107.424433,110.395965 L107.424433,117.417803 L105.074207,117.417803 L105.074207,101.097697 L115.675596,101.097697 L115.675596,103.202282 L107.424433,103.202282 L107.424433,108.29138 L114.260995,108.29138" id="Fill-9" fill="#2A2B29" sketch:type="MSShapeGroup"></path>
                <path d="M127.049232,110.07712 L127.049232,117.417803 L125.202335,117.417803 L125.058236,115.729373 L125.011557,115.729373 C124.123626,116.952993 122.732365,117.662113 121.029567,117.662113 C118.486532,117.662113 117.119626,116.194183 117.119626,114.115479 L117.119626,113.893944 C117.119626,111.643394 118.630631,110.32143 121.485202,110.32143 L124.818749,110.32143 L124.818749,110.15062 C124.818749,108.095725 123.930818,107.116415 122.036227,107.116415 C120.741369,107.116415 119.661645,107.825535 118.822424,108.78 L117.622956,107.263415 C118.72602,105.966296 120.333429,105.135021 122.324424,105.135021 C125.466177,105.135021 127.049232,106.798606 127.049232,110.07712 L127.049232,110.07712 Z M121.892128,112.084394 C120.285734,112.084394 119.350108,112.720014 119.350108,113.918789 C119.350108,115.067873 120.046246,115.778028 121.581606,115.778028 C122.995192,115.778028 124.17132,114.971599 124.818749,113.599944 L124.818749,112.084394 L121.892128,112.084394 L121.892128,112.084394 Z" id="Fill-10" fill="#2A2B29" sketch:type="MSShapeGroup"></path>
                <path d="M147.944532,110.028465 L147.944532,117.417803 L145.714049,117.417803 L145.714049,110.125775 C145.714049,108.119535 144.994571,107.116415 143.387163,107.116415 C142.092305,107.116415 141.036936,107.90007 140.484897,109.221 C140.509251,109.46531 140.509251,109.734465 140.509251,110.028465 L140.509251,117.417803 L138.278768,117.417803 L138.278768,110.125775 C138.278768,108.119535 137.534936,107.116415 135.951882,107.116415 C134.729074,107.116415 133.697044,107.94769 133.09731,109.343155 L133.09731,117.417803 L130.866828,117.417803 L130.866828,105.379331 L132.713724,105.379331 L132.857823,106.994261 L132.905517,106.994261 C133.744739,105.770641 134.945222,105.135021 136.359823,105.135021 C138.085961,105.135021 139.285429,105.770641 139.933872,107.067761 L139.981567,107.067761 C140.820788,105.770641 142.115645,105.135021 143.819458,105.135021 C146.577626,105.135021 147.944532,106.798606 147.944532,110.028465" id="Fill-11" fill="#2A2B29" sketch:type="MSShapeGroup"></path>
                <path d="M151.428266,101.709507 C151.428266,100.852352 152.028,100.240542 152.867222,100.240542 C153.706443,100.240542 154.307192,100.852352 154.307192,101.709507 C154.307192,102.565627 153.706443,103.177437 152.867222,103.177437 C152.028,103.177437 151.428266,102.565627 151.428266,101.709507 L151.428266,101.709507 Z M151.764158,105.379331 L153.99464,105.379331 L153.99464,117.417803 L151.764158,117.417803 L151.764158,105.379331 Z" id="Fill-12" fill="#2A2B29" sketch:type="MSShapeGroup"></path>
                <path d="M158.026355,100.290232 L160.256837,100.290232 L160.256837,117.417803 L158.026355,117.417803 L158.026355,100.290232 Z" id="Fill-13" fill="#2A2B29" sketch:type="MSShapeGroup"></path>
                <path d="M173.810217,116.635183 C173.810217,120.035852 171.98666,121.918901 168.845921,121.918901 C167.045704,121.918901 165.463665,121.283282 164.288552,120.060697 L165.391616,118.470613 C166.374936,119.448887 167.478,119.962352 168.726177,119.962352 C170.572059,119.962352 171.579734,118.812232 171.579734,116.732493 L171.579734,115.753183 L171.531025,115.753183 C170.644108,116.782183 169.49335,117.319458 168.149783,117.319458 C165.367261,117.319458 164.095744,115.655873 164.095744,112.427049 L164.095744,105.379331 L166.326227,105.379331 L166.326227,112.352514 C166.326227,114.333908 166.97467,115.338063 168.581064,115.338063 C169.901291,115.338063 170.95666,114.481944 171.579734,113.062669 L171.579734,105.379331 L173.810217,105.379331 L173.810217,116.635183" id="Fill-14" fill="#2A2B29" sketch:type="MSShapeGroup"></path>
                <path d="M13.980601,141.552718 C13.1058621,144.684232 10.7678128,146.436845 7.0506798,146.436845 C2.54404926,146.436845 0.00913300493,143.793951 0.00913300493,138.966761 L0.00913300493,134.168556 C0.00913300493,129.340331 2.51665025,126.697437 6.9664532,126.697437 C10.5993596,126.697437 12.8815961,128.450049 13.7543054,131.611585 L11.3594286,132.587789 C10.6835862,130.318606 9.21926108,129.169521 7.0506798,129.169521 C4.20625616,129.169521 2.77034483,130.864162 2.77034483,134.254479 L2.77034483,138.879803 C2.77034483,142.271155 4.23466995,143.965796 7.1349064,143.965796 C9.36031527,143.965796 10.8530542,142.816711 11.5573103,140.575479 L13.980601,141.552718" id="Fill-15" fill="#2A2B29" sketch:type="MSShapeGroup"></path>
                <path d="M28.455399,146.150092 L28.455399,137.616845 L20.0621675,137.616845 L20.0621675,146.150092 L17.3019704,146.150092 L17.3019704,126.985225 L20.0621675,126.985225 L20.0621675,135.144761 L28.455399,135.144761 L28.455399,126.985225 L31.2155961,126.985225 L31.2155961,146.150092 L28.455399,146.150092" id="Fill-16" fill="#2A2B29" sketch:type="MSShapeGroup"></path>
                <path d="M36.2844138,126.985225 L39.0446108,126.985225 L39.0446108,146.150092 L36.2844138,146.150092 L36.2844138,126.985225 Z" id="Fill-17" fill="#2A2B29" sketch:type="MSShapeGroup"></path>
                <path d="M46.8746404,146.150092 L44.1144433,146.150092 L44.1144433,126.985225 L50.8738818,126.985225 C55.2678719,126.985225 57.4080394,128.880697 57.4080394,132.731683 C57.4080394,135.720338 56.1405813,137.500901 53.578266,138.162401 L58.028069,146.150092 L54.8173103,146.150092 L50.7054286,138.478141 L46.8746404,138.478141 L46.8746404,146.150092 L46.8746404,146.150092 Z M50.8464828,136.007092 C53.408798,136.007092 54.6194286,134.972915 54.6194286,132.731683 C54.6194286,130.490451 53.408798,129.456275 50.8464828,129.456275 L46.8746404,129.456275 L46.8746404,136.007092 L50.8464828,136.007092 L50.8464828,136.007092 Z" id="Fill-18" fill="#2A2B29" sketch:type="MSShapeGroup"></path>
                <path d="M60.9272906,134.168556 C60.9272906,129.340331 63.4906207,126.697437 68.1098916,126.697437 C72.7575764,126.697437 75.3209064,129.340331 75.3209064,134.168556 L75.3209064,138.966761 C75.3209064,143.793951 72.7575764,146.436845 68.1098916,146.436845 C63.4906207,146.436845 60.9272906,143.793951 60.9272906,138.966761 L60.9272906,134.168556 L60.9272906,134.168556 Z M72.5607094,134.254479 C72.5607094,130.835176 71.1237833,129.169521 68.1098916,129.169521 C65.1528276,129.169521 63.6885025,130.835176 63.6885025,134.254479 L63.6885025,138.879803 C63.6885025,142.299106 65.1528276,143.965796 68.1098916,143.965796 C71.0963842,143.965796 72.5607094,142.299106 72.5607094,138.879803 L72.5607094,134.254479 L72.5607094,134.254479 Z" id="Fill-19" fill="#2A2B29" sketch:type="MSShapeGroup"></path>
                <path d="M86.3312512,126.985225 C90.809468,126.985225 92.979064,128.938669 92.979064,132.932514 C92.979064,136.955345 90.809468,138.879803 86.3312512,138.879803 L82.4446502,138.879803 L82.4446502,146.150092 L79.685468,146.150092 L79.685468,126.985225 L86.3312512,126.985225 L86.3312512,126.985225 Z M86.3312512,136.409789 C88.9514089,136.409789 90.1904532,135.28969 90.1904532,132.932514 C90.1904532,130.548423 88.9514089,129.456275 86.3312512,129.456275 L82.4446502,129.456275 L82.4446502,136.409789 L86.3312512,136.409789 L86.3312512,136.409789 Z" id="Fill-20" fill="#2A2B29" sketch:type="MSShapeGroup"></path>
                <path d="M99.0890443,146.150092 L96.3298621,146.150092 L96.3298621,126.985225 L103.0893,126.985225 C107.483291,126.985225 109.623458,128.880697 109.623458,132.731683 C109.623458,135.720338 108.356,137.500901 105.793685,138.162401 L110.243488,146.150092 L107.032729,146.150092 L102.920847,138.478141 L99.0890443,138.478141 L99.0890443,146.150092 L99.0890443,146.150092 Z M103.061901,136.007092 C105.624217,136.007092 106.834847,134.972915 106.834847,132.731683 C106.834847,130.490451 105.624217,129.456275 103.061901,129.456275 L99.0890443,129.456275 L99.0890443,136.007092 L103.061901,136.007092 L103.061901,136.007092 Z" id="Fill-21" fill="#2A2B29" sketch:type="MSShapeGroup"></path>
                <path d="M115.988148,142.328092 L114.748089,146.150092 L111.960493,146.150092 L118.523064,126.985225 L121.452729,126.985225 L128.071113,146.150092 L125.141448,146.150092 L123.902404,142.328092 L115.988148,142.328092 L115.988148,142.328092 Z M116.776631,139.858077 L123.113921,139.858077 L119.987389,130.173676 L119.931576,130.173676 L116.776631,139.858077 L116.776631,139.858077 Z" id="Fill-22" fill="#2A2B29" sketch:type="MSShapeGroup"></path>
                <path d="M144.322788,141.552718 C143.449064,144.684232 141.111015,146.436845 137.393882,146.436845 C132.886236,146.436845 130.35132,143.793951 130.35132,138.966761 L130.35132,134.168556 C130.35132,129.340331 132.858837,126.697437 137.309655,126.697437 C140.942562,126.697437 143.223783,128.450049 144.096493,131.611585 L141.702631,132.587789 C141.026788,130.318606 139.561448,129.169521 137.393882,129.169521 C134.548443,129.169521 133.112532,130.864162 133.112532,134.254479 L133.112532,138.879803 C133.112532,142.271155 134.576857,143.965796 137.478108,143.965796 C139.702502,143.965796 141.196256,142.816711 141.899498,140.575479 L144.322788,141.552718" id="Fill-23" fill="#2A2B29" sketch:type="MSShapeGroup"></path>
                <path d="M153.954049,146.150092 L151.193852,146.150092 L151.193852,129.456275 L145.729271,129.456275 L145.729271,126.985225 L159.418631,126.985225 L159.418631,129.456275 L153.954049,129.456275 L153.954049,146.150092" id="Fill-24" fill="#2A2B29" sketch:type="MSShapeGroup"></path>
                <path d="M162.544148,126.985225 L165.304345,126.985225 L165.304345,146.150092 L162.544148,146.150092 L162.544148,126.985225 Z" id="Fill-25" fill="#2A2B29" sketch:type="MSShapeGroup"></path>
                <path d="M183.63936,141.552718 C182.765635,144.684232 180.427586,146.436845 176.710453,146.436845 C172.202808,146.436845 169.667892,143.793951 169.667892,138.966761 L169.667892,134.168556 C169.667892,129.340331 172.175409,126.697437 176.626227,126.697437 C180.259133,126.697437 182.540355,128.450049 183.413064,131.611585 L181.019202,132.587789 C180.34336,130.318606 178.87802,129.169521 176.710453,129.169521 C173.865015,129.169521 172.429103,130.864162 172.429103,134.254479 L172.429103,138.879803 C172.429103,142.271155 173.893429,143.965796 176.79468,143.965796 C179.019074,143.965796 180.512828,142.816711 181.216069,140.575479 L183.63936,141.552718" id="Fill-26" fill="#2A2B29" sketch:type="MSShapeGroup"></path>
            </g>
        </g>
    </g>
</svg>